<svg width="339" height="52" viewBox="0 0 339 52" fill="none" xmlns="http://www.w3.org/2000/svg">
<rect width="339" height="52" rx="10" fill="white"/>
<rect x="0.5" y="0.5" width="338" height="51" rx="9.5" stroke="black" stroke-opacity="0.16"/>
<path d="M35.18 25.898C35.18 25.331 35.13 24.785 35.035 24.262H27.5V27.356H31.806C31.7169 27.8456 31.5295 28.312 31.255 28.7271C30.9805 29.1422 30.6247 29.4973 30.209 29.771V31.778H32.795C34.307 30.385 35.18 28.335 35.18 25.898Z" fill="#4285F4"/>
<path d="M27.4996 33.716C29.6596 33.716 31.4696 33 32.7936 31.778L30.2086 29.771C29.4916 30.251 28.5756 30.534 27.4986 30.534C25.4156 30.534 23.6516 29.127 23.0226 27.236H20.3506V29.309C21.0164 30.6342 22.0376 31.7482 23.3 32.5264C24.5625 33.3047 26.0165 33.7165 27.4996 33.716Z" fill="#34A853"/>
<path d="M23.024 27.238C22.864 26.758 22.773 26.245 22.773 25.718C22.773 25.19 22.863 24.678 23.023 24.198V22.125H20.352C19.7919 23.2399 19.5005 24.4703 19.501 25.718C19.501 27.008 19.811 28.23 20.351 29.31L23.024 27.238Z" fill="#FBBC05"/>
<path d="M27.4996 20.899C28.6736 20.899 29.7286 21.302 30.5576 22.095L32.8516 19.8C31.4666 18.51 29.6556 17.717 27.4996 17.717C26.0164 17.7163 24.5621 18.128 23.2995 18.9063C22.0368 19.6846 21.0155 20.7987 20.3496 22.124L23.0226 24.197C23.6526 22.306 25.4156 20.899 27.4996 20.899Z" fill="#EA4335"/>
<path d="M132.651 19.508H141.691V20.58H132.651V19.508ZM131.019 25.716H144.091V26.804H131.019V25.716ZM136.859 26.436H138.187V33.044H136.859V26.436ZM141.067 19.508H142.363V20.756C142.363 22.26 142.363 23.956 141.819 26.404L140.507 26.228C141.067 23.892 141.067 22.212 141.067 20.756V19.508ZM147.402 19.172H156.714V20.244H147.402V19.172ZM145.738 23.94H158.842V25.028H145.738V23.94ZM155.85 19.172H157.146V20.1C157.146 21.14 157.146 22.484 156.762 24.276L155.466 24.132C155.85 22.372 155.85 21.124 155.85 20.1V19.172ZM147.274 26.452H157.194V30.132H148.634V32.148H147.306V29.108H155.882V27.524H147.274V26.452ZM147.306 31.796H157.562V32.868H147.306V31.796ZM164.425 30.148H177.529V31.252H164.425V30.148ZM170.281 27.044H171.609V30.612H170.281V27.044ZM166.009 19.636H175.913V24.02H167.369V26.916H166.057V22.948H174.601V20.708H166.009V19.636ZM166.057 26.356H176.249V27.444H166.057V26.356ZM180.552 20.1H189.864V21.172H180.552V20.1ZM179.144 29.812H192.216V30.916H179.144V29.812ZM189.16 20.1H190.456V21.54C190.456 23.396 190.456 25.46 189.912 28.58L188.584 28.452C189.16 25.492 189.16 23.332 189.16 21.54V20.1ZM204.375 18.58H205.719V29.14H204.375V18.58ZM196.423 31.62H206.151V32.708H196.423V31.62ZM196.423 28.052H197.735V31.988H196.423V28.052ZM197.959 19.572C200.119 19.572 201.719 21.044 201.719 23.14C201.719 25.22 200.119 26.708 197.959 26.708C195.799 26.708 194.183 25.22 194.183 23.14C194.183 21.044 195.799 19.572 197.959 19.572ZM197.959 20.724C196.551 20.724 195.479 21.716 195.479 23.14C195.479 24.548 196.551 25.54 197.959 25.54C199.367 25.54 200.439 24.548 200.439 23.14C200.439 21.716 199.367 20.724 197.959 20.724Z" fill="black" fill-opacity="0.56"/>
</svg>
