<svg width="339" height="52" viewBox="0 0 339 52" fill="none" xmlns="http://www.w3.org/2000/svg">
<rect width="339" height="52" rx="10" fill="#FEE500"/>
<path d="M27.5 18.717C32.014 18.717 35.5 21.425 35.5 24.721C35.5 28.479 31.455 30.905 27.5 30.613C26.179 30.52 25.793 30.443 25.399 30.383C23.974 31.197 22.671 32.727 22.167 32.717C21.842 32.527 22.978 29.821 22.7 29.603C22.353 29.359 19.543 28.274 19.5 24.645C19.5 21.446 22.986 18.717 27.5 18.717Z" fill="black"/>
<path d="M130.296 20.068H131.592C131.592 24.244 130.184 28.084 125 30.66L124.28 29.636C128.856 27.38 130.296 24.148 130.296 20.212V20.068ZM125.064 20.068H131.08V21.14H125.064V20.068ZM130.088 23.652V24.676L124.552 25.22L124.344 24.036L130.088 23.652ZM133.928 18.548H135.272V33.028H133.928V18.548ZM134.904 24.42H137.576V25.524H134.904V24.42ZM145.014 20.068H146.31C146.31 24.244 144.902 28.084 139.718 30.66L138.998 29.636C143.574 27.38 145.014 24.148 145.014 20.212V20.068ZM139.782 20.068H145.798V21.14H139.782V20.068ZM144.806 23.652V24.676L139.27 25.22L139.062 24.036L144.806 23.652ZM148.646 18.548H149.99V33.028H148.646V18.548ZM149.622 24.42H152.294V25.524H149.622V24.42ZM159.445 26.74H160.773V30.34H159.445V26.74ZM160.117 19.508C163.173 19.508 165.365 20.996 165.365 23.3C165.365 25.604 163.173 27.092 160.117 27.092C157.061 27.092 154.853 25.604 154.853 23.3C154.853 20.996 157.061 19.508 160.117 19.508ZM160.117 20.564C157.813 20.564 156.133 21.652 156.133 23.3C156.133 24.948 157.813 26.036 160.117 26.036C162.405 26.036 164.085 24.948 164.085 23.3C164.085 21.652 162.405 20.564 160.117 20.564ZM153.589 30.084H166.693V31.188H153.589V30.084ZM172.292 30.148H185.396V31.252H172.292V30.148ZM178.148 27.044H179.476V30.612H178.148V27.044ZM173.876 19.636H183.78V24.02H175.236V26.916H173.924V22.948H182.468V20.708H173.876V19.636ZM173.924 26.356H184.116V27.444H173.924V26.356ZM188.419 20.1H197.731V21.172H188.419V20.1ZM187.011 29.812H200.083V30.916H187.011V29.812ZM197.027 20.1H198.323V21.54C198.323 23.396 198.323 25.46 197.779 28.58L196.451 28.452C197.027 25.492 197.027 23.332 197.027 21.54V20.1ZM212.242 18.58H213.586V29.14H212.242V18.58ZM204.29 31.62H214.018V32.708H204.29V31.62ZM204.29 28.052H205.602V31.988H204.29V28.052ZM205.826 19.572C207.986 19.572 209.586 21.044 209.586 23.14C209.586 25.22 207.986 26.708 205.826 26.708C203.666 26.708 202.05 25.22 202.05 23.14C202.05 21.044 203.666 19.572 205.826 19.572ZM205.826 20.724C204.418 20.724 203.346 21.716 203.346 23.14C203.346 24.548 204.418 25.54 205.826 25.54C207.234 25.54 208.306 24.548 208.306 23.14C208.306 21.716 207.234 20.724 205.826 20.724Z" fill="black" fill-opacity="0.85"/>
</svg>
