<svg width="339" height="52" viewBox="0 0 339 52" fill="none" xmlns="http://www.w3.org/2000/svg">
<rect width="339" height="52" rx="10" fill="#03C75A"/>
<path d="M21 32.217H25.377V25.48L29.58 32.217H34V19.217H29.623V25.954L25.463 19.217H21V32.217Z" fill="white"/>
<path d="M124.847 20.116H126.159V28.596H124.847V20.116ZM124.847 28.212H125.775C127.455 28.212 129.023 28.132 130.847 27.764L131.023 28.9C129.135 29.284 127.519 29.364 125.775 29.364H124.847V28.212ZM135.167 18.564H136.447V33.028H135.167V18.564ZM128.863 23.412H132.479V24.516H128.863V23.412ZM132.111 18.9H133.359V32.292H132.111V18.9ZM149.374 18.548H150.702V33.044H149.374V18.548ZM143.07 19.668C145.214 19.668 146.75 21.636 146.75 24.708C146.75 27.796 145.214 29.764 143.07 29.764C140.942 29.764 139.406 27.796 139.406 24.708C139.406 21.636 140.942 19.668 143.07 19.668ZM143.07 20.868C141.662 20.868 140.67 22.372 140.67 24.708C140.67 27.06 141.662 28.596 143.07 28.596C144.494 28.596 145.47 27.06 145.47 24.708C145.47 22.372 144.494 20.868 143.07 20.868ZM164.189 18.548H165.501V33.044H164.189V18.548ZM160.365 23.924H164.573V25.012H160.365V23.924ZM154.173 19.7H155.485V23.46H159.501V19.7H160.813V29.412H154.173V19.7ZM155.485 24.516V28.308H159.501V24.516H155.485ZM172.284 30.148H185.388V31.252H172.284V30.148ZM178.14 27.044H179.468V30.612H178.14V27.044ZM173.868 19.636H183.772V24.02H175.228V26.916H173.916V22.948H182.46V20.708H173.868V19.636ZM173.916 26.356H184.108V27.444H173.916V26.356ZM188.411 20.1H197.723V21.172H188.411V20.1ZM187.003 29.812H200.075V30.916H187.003V29.812ZM197.019 20.1H198.315V21.54C198.315 23.396 198.315 25.46 197.771 28.58L196.443 28.452C197.019 25.492 197.019 23.332 197.019 21.54V20.1ZM212.234 18.58H213.578V29.14H212.234V18.58ZM204.282 31.62H214.01V32.708H204.282V31.62ZM204.282 28.052H205.594V31.988H204.282V28.052ZM205.818 19.572C207.978 19.572 209.578 21.044 209.578 23.14C209.578 25.22 207.978 26.708 205.818 26.708C203.658 26.708 202.042 25.22 202.042 23.14C202.042 21.044 203.658 19.572 205.818 19.572ZM205.818 20.724C204.41 20.724 203.338 21.716 203.338 23.14C203.338 24.548 204.41 25.54 205.818 25.54C207.226 25.54 208.298 24.548 208.298 23.14C208.298 21.716 207.226 20.724 205.818 20.724Z" fill="white"/>
</svg>
