<svg width="55" height="55" viewBox="0 0 55 55" fill="none" xmlns="http://www.w3.org/2000/svg">
<rect width="54.5708" height="54.5708" rx="22" fill="white"/>
<path fill-rule="evenodd" clip-rule="evenodd" d="M38.6539 21.6009C38.6539 19.0895 36.6177 17.0534 34.1063 17.0534C30.3216 17.0534 24.2483 17.0534 20.4636 17.0534C17.9522 17.0534 15.916 19.0895 15.916 21.6009V36.3805C15.916 36.841 16.1934 37.2548 16.6175 37.431C17.0427 37.6073 17.5315 37.5095 17.8567 37.1843C17.8567 37.1843 20.0668 34.9742 21.4061 33.6361C21.8324 33.2098 22.41 32.9699 23.0136 32.9699H34.1063C36.6177 32.9699 38.6539 30.9337 38.6539 28.4223V21.6009ZM36.3801 21.6009C36.3801 20.3458 35.3626 19.3272 34.1063 19.3272C30.3216 19.3272 24.2483 19.3272 20.4636 19.3272C19.2085 19.3272 18.1898 20.3458 18.1898 21.6009V33.6361L19.7974 32.0285C20.65 31.1759 21.8074 30.6961 23.0136 30.6961H34.1063C35.3626 30.6961 36.3801 29.6786 36.3801 28.4223V21.6009ZM21.6005 28.4223H30.6956C31.3232 28.4223 31.8325 27.913 31.8325 27.2854C31.8325 26.6578 31.3232 26.1485 30.6956 26.1485H21.6005C20.9729 26.1485 20.4636 26.6578 20.4636 27.2854C20.4636 27.913 20.9729 28.4223 21.6005 28.4223ZM21.6005 23.8747H32.9694C33.597 23.8747 34.1063 23.3654 34.1063 22.7378C34.1063 22.1103 33.597 21.6009 32.9694 21.6009H21.6005C20.9729 21.6009 20.4636 22.1103 20.4636 22.7378C20.4636 23.3654 20.9729 23.8747 21.6005 23.8747Z" fill="#A5A7A7"/>
</svg>
