<svg width="128" height="40" viewBox="0 0 128 40" fill="none" xmlns="http://www.w3.org/2000/svg">
<rect x="0.5" y="0.5" width="127" height="39" rx="7.5" fill="white"/>
<rect x="0.5" y="0.5" width="127" height="39" rx="7.5" stroke="#EBEBEB"/>
<path d="M40.4898 23.4119H51.4886V24.8294H40.4898V23.4119ZM45.0967 21.115H46.8423V23.9894H45.0967V21.115ZM41.7236 14.8019H50.2548V18.8444H43.4823V20.8919H41.7498V17.4794H48.5223V16.18H41.7236V14.8019ZM41.7498 20.1962H50.5304V21.6006H41.7498V20.1962ZM53.6794 15.13H61.3838V16.5081H53.6794V15.13ZM52.5638 23.1625H63.5494V24.58H52.5638V23.1625ZM60.465 15.13H62.1975V16.5737C62.1975 18.28 62.1975 19.9337 61.7644 22.4275L60.0188 22.2831C60.465 19.9469 60.465 18.2144 60.465 16.5737V15.13ZM67.8796 14.8544C69.7303 14.8544 71.069 16.5344 71.069 19.1856C71.069 21.8631 69.7303 23.5431 67.8796 23.5431C66.029 23.5431 64.6903 21.8631 64.6903 19.1856C64.6903 16.5344 66.029 14.8544 67.8796 14.8544ZM67.8796 16.4425C66.974 16.4425 66.3703 17.4006 66.3703 19.1856C66.3703 20.9969 66.974 21.9681 67.8796 21.9681C68.7853 21.9681 69.4021 20.9969 69.4021 19.1856C69.4021 17.4006 68.7853 16.4425 67.8796 16.4425ZM72.3946 14.0144H74.1534V26.1681H72.3946V14.0144ZM73.7596 18.595H75.9121V20.0387H73.7596V18.595ZM76.6986 19.3431H87.6974V20.7475H76.6986V19.3431ZM81.3055 19.96H83.038V21.8894H81.3055V19.96ZM81.2661 22.375H82.7492V22.585C82.7492 24.3569 81.0955 25.84 77.9717 26.1288L77.4074 24.8162C80.0586 24.58 81.2661 23.5169 81.2661 22.585V22.375ZM81.5811 22.375H83.0642V22.585C83.0642 23.5825 84.2324 24.5931 86.923 24.8162L86.3717 26.1288C83.2611 25.84 81.5811 24.4356 81.5811 22.585V22.375ZM82.198 14.1456C84.8886 14.1456 86.5949 14.9987 86.5949 16.4425C86.5949 17.8862 84.8886 18.7394 82.198 18.7394C79.5074 18.7394 77.8011 17.8862 77.8011 16.4425C77.8011 14.9987 79.5074 14.1456 82.198 14.1456ZM82.198 15.445C80.518 15.445 79.5992 15.7731 79.5992 16.4425C79.5992 17.0856 80.518 17.4269 82.198 17.4269C83.8649 17.4269 84.7967 17.0856 84.7967 16.4425C84.7967 15.7731 83.8649 15.445 82.198 15.445Z" fill="#333333"/>
</svg>
