<svg width="55" height="55" viewBox="0 0 55 55" fill="none" xmlns="http://www.w3.org/2000/svg">
<rect width="54.5708" height="54.5708" rx="22" fill="white"/>
<path fill-rule="evenodd" clip-rule="evenodd" d="M26.1482 19.409V17.0534C26.1482 16.4258 26.6576 15.9165 27.2851 15.9165C27.9116 15.9165 28.422 16.4258 28.422 17.0534V19.409C30.1114 19.6523 31.6906 20.4368 32.9116 21.6578C34.4044 23.1505 35.2434 25.1753 35.2434 27.2854V31.5647L36.1631 33.4042C36.6031 34.2852 36.5565 35.3312 36.0381 36.1691C35.5208 37.007 34.6056 37.5174 33.621 37.5174H28.422C28.422 38.145 27.9116 38.6543 27.2851 38.6543C26.6576 38.6543 26.1482 38.145 26.1482 37.5174H20.9492C19.9635 37.5174 19.0484 37.007 18.5311 36.1691C18.0127 35.3312 17.966 34.2852 18.4071 33.4042L19.3269 31.5647V27.2854C19.3269 25.1753 20.1648 23.1505 21.6575 21.6578C22.8797 20.4368 24.4577 19.6523 26.1482 19.409ZM27.2851 21.6009C25.7765 21.6009 24.3315 22.2001 23.2651 23.2665C22.1987 24.3318 21.6007 25.7779 21.6007 27.2854V31.833C21.6007 32.0092 21.5586 32.1831 21.4802 32.3412C21.4802 32.3412 20.9742 33.353 20.4399 34.4205C20.3524 34.5968 20.3615 34.8071 20.4649 34.9742C20.5684 35.1413 20.7514 35.2436 20.9492 35.2436H33.621C33.8177 35.2436 34.0008 35.1413 34.1042 34.9742C34.2077 34.8071 34.2168 34.5968 34.1292 34.4205C33.5949 33.353 33.089 32.3412 33.089 32.3412C33.0105 32.1831 32.9696 32.0092 32.9696 31.833V27.2854C32.9696 25.7779 32.3705 24.3318 31.304 23.2665C30.2376 22.2001 28.7926 21.6009 27.2851 21.6009Z" fill="#F26921"/>
</svg>
