<svg width="55" height="55" viewBox="0 0 55 55" fill="none" xmlns="http://www.w3.org/2000/svg">
<rect width="54.5708" height="54.5708" rx="22" fill="white"/>
<g clip-path="url(#clip0_1354_807)">
<path d="M14.1367 14.7775H18.6851L21.7324 30.003C21.8364 30.5266 22.1212 30.9968 22.537 31.3315C22.9527 31.6662 23.473 31.844 24.0066 31.8337H35.0591C35.5927 31.844 36.1129 31.6662 36.5287 31.3315C36.9444 30.9968 37.2292 30.5266 37.3332 30.003L39.1526 20.4629H19.8221M24.3705 37.5192C24.3705 38.1472 23.8614 38.6562 23.2334 38.6562C22.6054 38.6562 22.0963 38.1472 22.0963 37.5192C22.0963 36.8912 22.6054 36.3821 23.2334 36.3821C23.8614 36.3821 24.3705 36.8912 24.3705 37.5192ZM36.8784 37.5192C36.8784 38.1472 36.3693 38.6562 35.7413 38.6562C35.1133 38.6562 34.6042 38.1472 34.6042 37.5192C34.6042 36.8912 35.1133 36.3821 35.7413 36.3821C36.3693 36.3821 36.8784 36.8912 36.8784 37.5192Z" stroke="#1E1E1E" stroke-width="4" stroke-linecap="round" stroke-linejoin="round"/>
</g>
<defs>
<clipPath id="clip0_1354_807">
<rect width="27.29" height="27.29" fill="white" transform="translate(13 13.6404)"/>
</clipPath>
</defs>
</svg>
