<svg width="57" height="55" viewBox="0 0 57 55" fill="none" xmlns="http://www.w3.org/2000/svg">
<rect width="54.5708" height="54.5708" rx="22" fill="white"/>
<path d="M42.5263 25.5C49.0948 25.5 54.5526 20.4228 54.5526 14C54.5526 7.57715 49.0948 2.5 42.5263 2.5C35.9578 2.5 30.5 7.57715 30.5 14C30.5 20.4228 35.9578 25.5 42.5263 25.5Z" fill="#F26921" stroke="white" stroke-width="3"/>
<g clip-path="url(#clip0_1355_808)">
<path d="M14.1367 15.1371H18.6851L21.7324 30.3626C21.8364 30.8861 22.1212 31.3564 22.537 31.6911C22.9527 32.0258 23.473 32.2036 24.0066 32.1933H35.0591C35.5927 32.2036 36.1129 32.0258 36.5287 31.6911C36.9444 31.3564 37.2292 30.8861 37.3332 30.3626L39.1526 20.8225H19.8221M24.3705 37.8788C24.3705 38.5067 23.8614 39.0158 23.2334 39.0158C22.6054 39.0158 22.0963 38.5067 22.0963 37.8788C22.0963 37.2508 22.6054 36.7417 23.2334 36.7417C23.8614 36.7417 24.3705 37.2508 24.3705 37.8788ZM36.8784 37.8788C36.8784 38.5067 36.3693 39.0158 35.7413 39.0158C35.1133 39.0158 34.6042 38.5067 34.6042 37.8788C34.6042 37.2508 35.1133 36.7417 35.7413 36.7417C36.3693 36.7417 36.8784 37.2508 36.8784 37.8788Z" stroke="#1E1E1E" stroke-width="4" stroke-linecap="round" stroke-linejoin="round"/>
</g>
<defs>
<clipPath id="clip0_1355_808">
<rect width="27.29" height="27.29" fill="white" transform="translate(13 14)"/>
</clipPath>
</defs>
</svg>
