<svg width="128" height="41" viewBox="0 0 128 41" fill="none" xmlns="http://www.w3.org/2000/svg">
<rect x="0.5" y="1" width="127" height="39" rx="7.5" fill="white"/>
<rect x="0.5" y="1" width="127" height="39" rx="7.5" stroke="#EBEBEB"/>
<path d="M19.8927 23.9119H30.8914V25.3294H19.8927V23.9119ZM24.4995 21.615H26.2452V24.4894H24.4995V21.615ZM21.1264 15.3019H29.6577V19.3444H22.8852V21.3919H21.1527V17.9794H27.9252V16.68H21.1264V15.3019ZM21.1527 20.6962H29.9333V22.1006H21.1527V20.6962ZM33.0823 15.63H40.7866V17.0081H33.0823V15.63ZM31.9666 23.6625H42.9523V25.08H31.9666V23.6625ZM39.8679 15.63H41.6004V17.0737C41.6004 18.78 41.6004 20.4337 41.1673 22.9275L39.4216 22.7831C39.8679 20.4469 39.8679 18.7144 39.8679 17.0737V15.63ZM52.375 14.5275H54.1337V23.2556H52.375V14.5275ZM46.0356 25.0669H54.4356V26.4581H46.0356V25.0669ZM46.0356 22.3762H47.7812V25.6313H46.0356V22.3762ZM47.5187 15.2887C49.3825 15.2887 50.8131 16.575 50.8131 18.3731C50.8131 20.1581 49.3825 21.4575 47.5187 21.4575C45.655 21.4575 44.2112 20.1581 44.2112 18.3731C44.2112 16.575 45.655 15.2887 47.5187 15.2887ZM47.5187 16.7981C46.6131 16.7981 45.9175 17.3756 45.9175 18.3731C45.9175 19.3575 46.6131 19.935 47.5187 19.935C48.4112 19.935 49.1069 19.3575 49.1069 18.3731C49.1069 17.3756 48.4112 16.7981 47.5187 16.7981ZM60.3399 15.5071L57.2637 26.9355H55.7862L58.8624 15.5071H60.3399ZM64.159 21.9037H65.9046V23.8725H64.159V21.9037ZM69.4746 14.5144H71.2202V26.6681H69.4746V14.5144ZM61.3502 24.6469L61.1402 23.2425C63.3452 23.2294 66.2852 23.2294 68.8446 22.8881L68.9627 24.1481C66.3246 24.6338 63.5027 24.6469 61.3502 24.6469ZM61.3765 15.8531H68.6871V17.2181H61.3765V15.8531ZM65.0252 17.7037C66.8233 17.7037 68.0702 18.6225 68.0702 19.9744C68.0702 21.3394 66.8233 22.2581 65.0252 22.2581C63.2533 22.2581 62.0065 21.3394 62.0065 19.9744C62.0065 18.6225 63.2533 17.7037 65.0252 17.7037ZM65.0252 19.0162C64.2377 19.0162 63.6733 19.3575 63.6733 19.9744C63.6733 20.6044 64.2377 20.9456 65.0252 20.9456C65.839 20.9456 66.4033 20.6044 66.4033 19.9744C66.4033 19.3575 65.839 19.0162 65.0252 19.0162ZM64.159 14.5669H65.9046V16.6406H64.159V14.5669ZM76.3117 20.7487H78.0573V23.4131H76.3117V20.7487ZM81.6404 14.5144H83.3861V23.715H81.6404V14.5144ZM74.6317 25.0669H83.6486V26.4581H74.6317V25.0669ZM74.6317 22.8487H76.3773V25.4344H74.6317V22.8487ZM73.3192 21.2737L73.1092 19.8825C75.3273 19.8825 78.2936 19.8562 80.8398 19.5281L80.9448 20.775C78.3592 21.2081 75.5111 21.2737 73.3192 21.2737ZM79.3436 21.5756H82.0211V22.77H79.3436V21.5756ZM77.0204 14.9344C78.7923 14.9344 80.0392 15.8137 80.0392 17.1C80.0392 18.3994 78.7923 19.2656 77.0204 19.2656C75.2354 19.2656 73.9886 18.3994 73.9886 17.1C73.9886 15.8137 75.2354 14.9344 77.0204 14.9344ZM77.0204 16.2075C76.2067 16.2075 75.6423 16.5094 75.6423 17.1C75.6423 17.6906 76.2067 17.9925 77.0204 17.9925C77.8211 17.9925 78.3854 17.6906 78.3854 17.1C78.3854 16.5094 77.8211 16.2075 77.0204 16.2075ZM92.9925 14.5012H94.7513V26.655H92.9925V14.5012ZM94.2919 19.1475H96.4313V20.5781H94.2919V19.1475ZM89.8032 15.7612H91.5094C91.5094 19.41 90.1182 22.5337 86.0757 24.5681L85.1044 23.2425C88.2938 21.5887 89.8032 19.3575 89.8032 16.0631V15.7612ZM85.7738 15.7612H90.6957V17.1656H85.7738V15.7612ZM105.644 14.5144H107.403V21.0506H105.644V14.5144ZM99.3178 21.5756H101.037V22.7044H105.67V21.5756H107.403V26.5369H99.3178V21.5756ZM101.037 24.0431V25.1456H105.67V24.0431H101.037ZM100.788 15.0131C102.678 15.0131 104.082 16.2075 104.082 17.8875C104.082 19.5675 102.678 20.7619 100.788 20.7619C98.8978 20.7619 97.4803 19.5675 97.4803 17.8875C97.4803 16.2075 98.8978 15.0131 100.788 15.0131ZM100.788 16.4569C99.8559 16.4569 99.1865 16.995 99.1865 17.8875C99.1865 18.7931 99.8559 19.3181 100.788 19.3181C101.707 19.3181 102.376 18.7931 102.376 17.8875C102.376 16.995 101.707 16.4569 100.788 16.4569Z" fill="#333333"/>
</svg>
