<svg width="120" height="48" viewBox="0 0 120 48" fill="none" xmlns="http://www.w3.org/2000/svg">
<rect width="120" height="48" rx="10" fill="#1273E4"/>
<path d="M51.9035 17.642H54.0059C54.0059 21.3325 51.7371 23.8735 47.6382 24.9927L46.8517 23.4349C50.1944 22.5274 51.9035 20.7426 51.9035 18.5949V17.642ZM47.6231 17.642H53.295V19.2301H47.6231V17.642ZM56.5015 16.8404H58.5131V24.6751H56.5015V16.8404ZM54.0815 20.1527H56.7889V21.7862H54.0815V20.1527ZM49.2869 25.2347H58.5131V30.6949H49.2869V25.2347ZM56.5317 26.8229H51.2682V29.1067H56.5317V26.8229ZM63.2309 17.642H64.8039V19.2452C64.8039 21.635 63.851 24.0096 61.5672 24.9927L60.5084 23.4349C62.4595 22.5727 63.2309 20.8334 63.2309 19.2452V17.642ZM63.5939 17.642H65.1669V19.2452C65.1669 20.8031 65.908 22.3156 67.7533 23.087L66.6945 24.6146C64.5165 23.7222 63.5939 21.5745 63.5939 19.2452V17.642ZM70.7329 16.8555H72.6387V25.3406H70.7329V16.8555ZM69.054 20.2435H71.2774V21.877H69.054V20.2435ZM67.7684 17.0672H69.6439V25.265H67.7684V17.0672ZM63.0192 25.9456H72.6387V30.8461H70.6422V27.5489H63.0192V25.9456Z" fill="white"/>
</svg>
