<svg width="20" height="20" viewBox="0 0 20 20" fill="none" xmlns="http://www.w3.org/2000/svg">
<path fill-rule="evenodd" clip-rule="evenodd" d="M8.85 16.1C10.4646 16.0994 12.0247 15.5164 13.244 14.458L13.217 14.492L16.617 18L18 16.574L14.53 12.994C15.2973 11.822 15.704 10.4508 15.7 9.05C15.7 5.156 12.633 2 8.85 2C5.067 2 2 5.156 2 9.05C2 12.944 5.067 16.1 8.85 16.1ZM8.85 14.11C11.545 14.11 13.73 11.847 13.73 9.055C13.73 6.263 11.545 4 8.85 4C6.155 4 3.97 6.263 3.97 9.055C3.97 11.847 6.155 14.11 8.85 14.11Z" fill="#999999"/>
</svg>
